<svg width="17" height="26" viewBox="0 0 17 26" fill="none" xmlns="http://www.w3.org/2000/svg">
<path fill-rule="evenodd" clip-rule="evenodd" d="M15.8171 7H0.778995L0 26H17L15.8171 7ZM14.6745 8.1875L15.7095 24.8125H1.26395L1.94557 8.1875H14.6745Z" fill="black"/>
<path fill-rule="evenodd" clip-rule="evenodd" d="M13 10.9387L11.855 10.9177C11.7098 4.24371 10.7239 1.3157 8.67244 1.20896C6.51553 1.2686 5.483 4.13204 5.14362 11L4 10.9373C4.36865 3.47696 5.5753 0.105318 8.59982 0.0041122L8.59989 0C8.62609 0.000481702 8.65215 0.00122453 8.67808 0.00222893C8.69923 0.00191638 8.72047 0.00176024 8.74181 0.00176024V0.00524063C11.6178 0.165865 12.7768 3.60705 13 10.9387Z" fill="black"/>
</svg>
