<svg width="17" height="27" viewBox="0 0 17 27" fill="none" xmlns="http://www.w3.org/2000/svg">
<path fill-rule="evenodd" clip-rule="evenodd" d="M4.5 8.5C4.5 10.7091 6.29086 12.5 8.5 12.5C10.7091 12.5 12.5 10.7091 12.5 8.5C12.5 6.29086 10.7091 4.5 8.5 4.5C6.29086 4.5 4.5 6.29086 4.5 8.5ZM11.5 8.5C11.5 10.1569 10.1569 11.5 8.5 11.5C6.84315 11.5 5.5 10.1569 5.5 8.5C5.5 6.84315 6.84315 5.5 8.5 5.5C10.1569 5.5 11.5 6.84315 11.5 8.5Z" fill="white"/>
<path d="M8.5 25.3798C8.5 25.3798 16 12.6421 16 8.5C16 4.35786 12.6421 1 8.5 1C4.35786 1 1 4.35786 1 8.5C1 12.6421 8.5 25.3798 8.5 25.3798Z" stroke="white"/>
</svg>
